G04 #@! TF.GenerationSoftware,KiCad,Pcbnew,5.0.0+dfsg1-2*
G04 #@! TF.CreationDate,2018-11-20T21:01:12-06:00*
G04 #@! TF.ProjectId,49es,343965732E6B696361645F7063620000,rev?*
G04 #@! TF.SameCoordinates,Original*
G04 #@! TF.FileFunction,Legend,Top*
G04 #@! TF.FilePolarity,Positive*
%FSLAX46Y46*%
G04 Gerber Fmt 4.6, Leading zero omitted, Abs format (unit mm)*
G04 Created by KiCad (PCBNEW 5.0.0+dfsg1-2) date Tue Nov 20 21:01:12 2018*
%MOMM*%
%LPD*%
G01*
G04 APERTURE LIST*
%ADD10C,0.120000*%
%ADD11C,0.150000*%
G04 APERTURE END LIST*
D10*
G04 #@! TO.C,3-to-8*
X145760000Y-69790000D02*
X144510000Y-69790000D01*
X145760000Y-90230000D02*
X145760000Y-69790000D01*
X141260000Y-90230000D02*
X145760000Y-90230000D01*
X141260000Y-69790000D02*
X141260000Y-90230000D01*
X142510000Y-69790000D02*
X141260000Y-69790000D01*
X144510000Y-69790000D02*
G75*
G02X142510000Y-69790000I-1000000J0D01*
G01*
G04 #@! TO.C,J1*
X192635000Y-60690000D02*
X192635000Y-101870000D01*
X192635000Y-101870000D02*
X183285000Y-101870000D01*
X183285000Y-101870000D02*
X183285000Y-60690000D01*
X183285000Y-60690000D02*
X192635000Y-60690000D01*
X183035000Y-60440000D02*
X183035000Y-62980000D01*
X183035000Y-60440000D02*
X185575000Y-60440000D01*
G04 #@! TO.C,MSP1*
X144510000Y-39310000D02*
G75*
G02X142510000Y-39310000I-1000000J0D01*
G01*
X142510000Y-39310000D02*
X141260000Y-39310000D01*
X141260000Y-39310000D02*
X141260000Y-64830000D01*
X141260000Y-64830000D02*
X145760000Y-64830000D01*
X145760000Y-64830000D02*
X145760000Y-39310000D01*
X145760000Y-39310000D02*
X144510000Y-39310000D01*
X138260000Y-39250000D02*
X138260000Y-64890000D01*
X138260000Y-64890000D02*
X148760000Y-64890000D01*
X148760000Y-64890000D02*
X148760000Y-39250000D01*
X148760000Y-39250000D02*
X138260000Y-39250000D01*
G04 #@! TO.C,MUX1*
X173720000Y-39310000D02*
G75*
G02X171720000Y-39310000I-1000000J0D01*
G01*
X171720000Y-39310000D02*
X170470000Y-39310000D01*
X170470000Y-39310000D02*
X170470000Y-59750000D01*
X170470000Y-59750000D02*
X174970000Y-59750000D01*
X174970000Y-59750000D02*
X174970000Y-39310000D01*
X174970000Y-39310000D02*
X173720000Y-39310000D01*
G04 #@! TO.C,Q1*
X121188445Y-47547684D02*
G75*
G03X120160000Y-43270000I-1808445J1827684D01*
G01*
X117568125Y-47561741D02*
G75*
G02X118560000Y-43270000I1811875J1841741D01*
G01*
X117580000Y-47570000D02*
X121180000Y-47570000D01*
G04 #@! TO.C,Q2*
X117580000Y-59000000D02*
X121180000Y-59000000D01*
X117568125Y-58991741D02*
G75*
G02X118560000Y-54700000I1811875J1841741D01*
G01*
X121188445Y-58977684D02*
G75*
G03X120160000Y-54700000I-1808445J1827684D01*
G01*
G04 #@! TO.C,Q3*
X121188445Y-70407684D02*
G75*
G03X120160000Y-66130000I-1808445J1827684D01*
G01*
X117568125Y-70421741D02*
G75*
G02X118560000Y-66130000I1811875J1841741D01*
G01*
X117580000Y-70430000D02*
X121180000Y-70430000D01*
G04 #@! TO.C,Q4*
X117580000Y-81860000D02*
X121180000Y-81860000D01*
X117568125Y-81851741D02*
G75*
G02X118560000Y-77560000I1811875J1841741D01*
G01*
X121188445Y-81837684D02*
G75*
G03X120160000Y-77560000I-1808445J1827684D01*
G01*
G04 #@! TO.C,Q5*
X121188445Y-94537684D02*
G75*
G03X120160000Y-90260000I-1808445J1827684D01*
G01*
X117568125Y-94551741D02*
G75*
G02X118560000Y-90260000I1811875J1841741D01*
G01*
X117580000Y-94560000D02*
X121180000Y-94560000D01*
G04 #@! TO.C,Q6*
X163300000Y-75510000D02*
X166900000Y-75510000D01*
X163288125Y-75501741D02*
G75*
G02X164280000Y-71210000I1811875J1841741D01*
G01*
X166908445Y-75487684D02*
G75*
G03X165880000Y-71210000I-1808445J1827684D01*
G01*
G04 #@! TO.C,Q7*
X163300000Y-92020000D02*
X166900000Y-92020000D01*
X163288125Y-92011741D02*
G75*
G02X164280000Y-87720000I1811875J1841741D01*
G01*
X166908445Y-91997684D02*
G75*
G03X165880000Y-87720000I-1808445J1827684D01*
G01*
G04 #@! TO.C,R1*
X160350000Y-55880000D02*
X159400000Y-55880000D01*
X154610000Y-55880000D02*
X155560000Y-55880000D01*
X159400000Y-54960000D02*
X155560000Y-54960000D01*
X159400000Y-56800000D02*
X159400000Y-54960000D01*
X155560000Y-56800000D02*
X159400000Y-56800000D01*
X155560000Y-54960000D02*
X155560000Y-56800000D01*
G04 #@! TO.C,R2*
X155560000Y-49880000D02*
X155560000Y-51720000D01*
X155560000Y-51720000D02*
X159400000Y-51720000D01*
X159400000Y-51720000D02*
X159400000Y-49880000D01*
X159400000Y-49880000D02*
X155560000Y-49880000D01*
X154610000Y-50800000D02*
X155560000Y-50800000D01*
X160350000Y-50800000D02*
X159400000Y-50800000D01*
G04 #@! TO.C,R3*
X155560000Y-44800000D02*
X155560000Y-46640000D01*
X155560000Y-46640000D02*
X159400000Y-46640000D01*
X159400000Y-46640000D02*
X159400000Y-44800000D01*
X159400000Y-44800000D02*
X155560000Y-44800000D01*
X154610000Y-45720000D02*
X155560000Y-45720000D01*
X160350000Y-45720000D02*
X159400000Y-45720000D01*
G04 #@! TO.C,R4*
X160350000Y-40640000D02*
X159400000Y-40640000D01*
X154610000Y-40640000D02*
X155560000Y-40640000D01*
X159400000Y-39720000D02*
X155560000Y-39720000D01*
X159400000Y-41560000D02*
X159400000Y-39720000D01*
X155560000Y-41560000D02*
X159400000Y-41560000D01*
X155560000Y-39720000D02*
X155560000Y-41560000D01*
G04 #@! TO.C,R5*
X189880000Y-40290000D02*
X189880000Y-38450000D01*
X189880000Y-38450000D02*
X186040000Y-38450000D01*
X186040000Y-38450000D02*
X186040000Y-40290000D01*
X186040000Y-40290000D02*
X189880000Y-40290000D01*
X190830000Y-39370000D02*
X189880000Y-39370000D01*
X185090000Y-39370000D02*
X186040000Y-39370000D01*
G04 #@! TO.C,R6*
X185090000Y-44450000D02*
X186040000Y-44450000D01*
X190830000Y-44450000D02*
X189880000Y-44450000D01*
X186040000Y-45370000D02*
X189880000Y-45370000D01*
X186040000Y-43530000D02*
X186040000Y-45370000D01*
X189880000Y-43530000D02*
X186040000Y-43530000D01*
X189880000Y-45370000D02*
X189880000Y-43530000D01*
G04 #@! TO.C,R7*
X189880000Y-50450000D02*
X189880000Y-48610000D01*
X189880000Y-48610000D02*
X186040000Y-48610000D01*
X186040000Y-48610000D02*
X186040000Y-50450000D01*
X186040000Y-50450000D02*
X189880000Y-50450000D01*
X190830000Y-49530000D02*
X189880000Y-49530000D01*
X185090000Y-49530000D02*
X186040000Y-49530000D01*
G04 #@! TO.C,R8*
X185090000Y-55880000D02*
X186040000Y-55880000D01*
X190830000Y-55880000D02*
X189880000Y-55880000D01*
X186040000Y-56800000D02*
X189880000Y-56800000D01*
X186040000Y-54960000D02*
X186040000Y-56800000D01*
X189880000Y-54960000D02*
X186040000Y-54960000D01*
X189880000Y-56800000D02*
X189880000Y-54960000D01*
G04 #@! TO.C,R9*
X113030000Y-41580000D02*
X113030000Y-42530000D01*
X113030000Y-47320000D02*
X113030000Y-46370000D01*
X112110000Y-42530000D02*
X112110000Y-46370000D01*
X113950000Y-42530000D02*
X112110000Y-42530000D01*
X113950000Y-46370000D02*
X113950000Y-42530000D01*
X112110000Y-46370000D02*
X113950000Y-46370000D01*
G04 #@! TO.C,R10*
X124810000Y-46370000D02*
X126650000Y-46370000D01*
X126650000Y-46370000D02*
X126650000Y-42530000D01*
X126650000Y-42530000D02*
X124810000Y-42530000D01*
X124810000Y-42530000D02*
X124810000Y-46370000D01*
X125730000Y-47320000D02*
X125730000Y-46370000D01*
X125730000Y-41580000D02*
X125730000Y-42530000D01*
G04 #@! TO.C,R11*
X113030000Y-53010000D02*
X113030000Y-53960000D01*
X113030000Y-58750000D02*
X113030000Y-57800000D01*
X112110000Y-53960000D02*
X112110000Y-57800000D01*
X113950000Y-53960000D02*
X112110000Y-53960000D01*
X113950000Y-57800000D02*
X113950000Y-53960000D01*
X112110000Y-57800000D02*
X113950000Y-57800000D01*
G04 #@! TO.C,R12*
X112110000Y-69230000D02*
X113950000Y-69230000D01*
X113950000Y-69230000D02*
X113950000Y-65390000D01*
X113950000Y-65390000D02*
X112110000Y-65390000D01*
X112110000Y-65390000D02*
X112110000Y-69230000D01*
X113030000Y-70180000D02*
X113030000Y-69230000D01*
X113030000Y-64440000D02*
X113030000Y-65390000D01*
G04 #@! TO.C,R13*
X112110000Y-81930000D02*
X113950000Y-81930000D01*
X113950000Y-81930000D02*
X113950000Y-78090000D01*
X113950000Y-78090000D02*
X112110000Y-78090000D01*
X112110000Y-78090000D02*
X112110000Y-81930000D01*
X113030000Y-82880000D02*
X113030000Y-81930000D01*
X113030000Y-77140000D02*
X113030000Y-78090000D01*
G04 #@! TO.C,R14*
X113030000Y-89840000D02*
X113030000Y-90790000D01*
X113030000Y-95580000D02*
X113030000Y-94630000D01*
X112110000Y-90790000D02*
X112110000Y-94630000D01*
X113950000Y-90790000D02*
X112110000Y-90790000D01*
X113950000Y-94630000D02*
X113950000Y-90790000D01*
X112110000Y-94630000D02*
X113950000Y-94630000D01*
G04 #@! TO.C,R15*
X157830000Y-75580000D02*
X159670000Y-75580000D01*
X159670000Y-75580000D02*
X159670000Y-71740000D01*
X159670000Y-71740000D02*
X157830000Y-71740000D01*
X157830000Y-71740000D02*
X157830000Y-75580000D01*
X158750000Y-76530000D02*
X158750000Y-75580000D01*
X158750000Y-70790000D02*
X158750000Y-71740000D01*
G04 #@! TO.C,R16*
X158750000Y-87300000D02*
X158750000Y-88250000D01*
X158750000Y-93040000D02*
X158750000Y-92090000D01*
X157830000Y-88250000D02*
X157830000Y-92090000D01*
X159670000Y-88250000D02*
X157830000Y-88250000D01*
X159670000Y-92090000D02*
X159670000Y-88250000D01*
X157830000Y-92090000D02*
X159670000Y-92090000D01*
G04 #@! TO.C,R17*
X124810000Y-57800000D02*
X126650000Y-57800000D01*
X126650000Y-57800000D02*
X126650000Y-53960000D01*
X126650000Y-53960000D02*
X124810000Y-53960000D01*
X124810000Y-53960000D02*
X124810000Y-57800000D01*
X125730000Y-58750000D02*
X125730000Y-57800000D01*
X125730000Y-53010000D02*
X125730000Y-53960000D01*
G04 #@! TO.C,R18*
X125730000Y-64440000D02*
X125730000Y-65390000D01*
X125730000Y-70180000D02*
X125730000Y-69230000D01*
X124810000Y-65390000D02*
X124810000Y-69230000D01*
X126650000Y-65390000D02*
X124810000Y-65390000D01*
X126650000Y-69230000D02*
X126650000Y-65390000D01*
X124810000Y-69230000D02*
X126650000Y-69230000D01*
G04 #@! TO.C,R19*
X125730000Y-77140000D02*
X125730000Y-78090000D01*
X125730000Y-82880000D02*
X125730000Y-81930000D01*
X124810000Y-78090000D02*
X124810000Y-81930000D01*
X126650000Y-78090000D02*
X124810000Y-78090000D01*
X126650000Y-81930000D02*
X126650000Y-78090000D01*
X124810000Y-81930000D02*
X126650000Y-81930000D01*
G04 #@! TO.C,R20*
X124810000Y-94630000D02*
X126650000Y-94630000D01*
X126650000Y-94630000D02*
X126650000Y-90790000D01*
X126650000Y-90790000D02*
X124810000Y-90790000D01*
X124810000Y-90790000D02*
X124810000Y-94630000D01*
X125730000Y-95580000D02*
X125730000Y-94630000D01*
X125730000Y-89840000D02*
X125730000Y-90790000D01*
G04 #@! TO.C,R21*
X171450000Y-70790000D02*
X171450000Y-71740000D01*
X171450000Y-76530000D02*
X171450000Y-75580000D01*
X170530000Y-71740000D02*
X170530000Y-75580000D01*
X172370000Y-71740000D02*
X170530000Y-71740000D01*
X172370000Y-75580000D02*
X172370000Y-71740000D01*
X170530000Y-75580000D02*
X172370000Y-75580000D01*
G04 #@! TO.C,R22*
X170530000Y-92090000D02*
X172370000Y-92090000D01*
X172370000Y-92090000D02*
X172370000Y-88250000D01*
X172370000Y-88250000D02*
X170530000Y-88250000D01*
X170530000Y-88250000D02*
X170530000Y-92090000D01*
X171450000Y-93040000D02*
X171450000Y-92090000D01*
X171450000Y-87300000D02*
X171450000Y-88250000D01*
G04 #@! TO.C,3-to-8*
D11*
X140724285Y-68242380D02*
X141343333Y-68242380D01*
X141010000Y-68623333D01*
X141152857Y-68623333D01*
X141248095Y-68670952D01*
X141295714Y-68718571D01*
X141343333Y-68813809D01*
X141343333Y-69051904D01*
X141295714Y-69147142D01*
X141248095Y-69194761D01*
X141152857Y-69242380D01*
X140867142Y-69242380D01*
X140771904Y-69194761D01*
X140724285Y-69147142D01*
X141771904Y-68861428D02*
X142533809Y-68861428D01*
X142867142Y-68575714D02*
X143248095Y-68575714D01*
X143010000Y-68242380D02*
X143010000Y-69099523D01*
X143057619Y-69194761D01*
X143152857Y-69242380D01*
X143248095Y-69242380D01*
X143724285Y-69242380D02*
X143629047Y-69194761D01*
X143581428Y-69147142D01*
X143533809Y-69051904D01*
X143533809Y-68766190D01*
X143581428Y-68670952D01*
X143629047Y-68623333D01*
X143724285Y-68575714D01*
X143867142Y-68575714D01*
X143962380Y-68623333D01*
X144010000Y-68670952D01*
X144057619Y-68766190D01*
X144057619Y-69051904D01*
X144010000Y-69147142D01*
X143962380Y-69194761D01*
X143867142Y-69242380D01*
X143724285Y-69242380D01*
X144486190Y-68861428D02*
X145248095Y-68861428D01*
X145867142Y-68670952D02*
X145771904Y-68623333D01*
X145724285Y-68575714D01*
X145676666Y-68480476D01*
X145676666Y-68432857D01*
X145724285Y-68337619D01*
X145771904Y-68290000D01*
X145867142Y-68242380D01*
X146057619Y-68242380D01*
X146152857Y-68290000D01*
X146200476Y-68337619D01*
X146248095Y-68432857D01*
X146248095Y-68480476D01*
X146200476Y-68575714D01*
X146152857Y-68623333D01*
X146057619Y-68670952D01*
X145867142Y-68670952D01*
X145771904Y-68718571D01*
X145724285Y-68766190D01*
X145676666Y-68861428D01*
X145676666Y-69051904D01*
X145724285Y-69147142D01*
X145771904Y-69194761D01*
X145867142Y-69242380D01*
X146057619Y-69242380D01*
X146152857Y-69194761D01*
X146200476Y-69147142D01*
X146248095Y-69051904D01*
X146248095Y-68861428D01*
X146200476Y-68766190D01*
X146152857Y-68718571D01*
X146057619Y-68670952D01*
G04 #@! TO.C,J1*
X187626666Y-58888380D02*
X187626666Y-59602666D01*
X187579047Y-59745523D01*
X187483809Y-59840761D01*
X187340952Y-59888380D01*
X187245714Y-59888380D01*
X188626666Y-59888380D02*
X188055238Y-59888380D01*
X188340952Y-59888380D02*
X188340952Y-58888380D01*
X188245714Y-59031238D01*
X188150476Y-59126476D01*
X188055238Y-59174095D01*
G04 #@! TO.C,MSP1*
X141724285Y-38762380D02*
X141724285Y-37762380D01*
X142057619Y-38476666D01*
X142390952Y-37762380D01*
X142390952Y-38762380D01*
X142819523Y-38714761D02*
X142962380Y-38762380D01*
X143200476Y-38762380D01*
X143295714Y-38714761D01*
X143343333Y-38667142D01*
X143390952Y-38571904D01*
X143390952Y-38476666D01*
X143343333Y-38381428D01*
X143295714Y-38333809D01*
X143200476Y-38286190D01*
X143010000Y-38238571D01*
X142914761Y-38190952D01*
X142867142Y-38143333D01*
X142819523Y-38048095D01*
X142819523Y-37952857D01*
X142867142Y-37857619D01*
X142914761Y-37810000D01*
X143010000Y-37762380D01*
X143248095Y-37762380D01*
X143390952Y-37810000D01*
X143819523Y-38762380D02*
X143819523Y-37762380D01*
X144200476Y-37762380D01*
X144295714Y-37810000D01*
X144343333Y-37857619D01*
X144390952Y-37952857D01*
X144390952Y-38095714D01*
X144343333Y-38190952D01*
X144295714Y-38238571D01*
X144200476Y-38286190D01*
X143819523Y-38286190D01*
X145343333Y-38762380D02*
X144771904Y-38762380D01*
X145057619Y-38762380D02*
X145057619Y-37762380D01*
X144962380Y-37905238D01*
X144867142Y-38000476D01*
X144771904Y-38048095D01*
G04 #@! TO.C,MUX1*
X170910476Y-38762380D02*
X170910476Y-37762380D01*
X171243809Y-38476666D01*
X171577142Y-37762380D01*
X171577142Y-38762380D01*
X172053333Y-37762380D02*
X172053333Y-38571904D01*
X172100952Y-38667142D01*
X172148571Y-38714761D01*
X172243809Y-38762380D01*
X172434285Y-38762380D01*
X172529523Y-38714761D01*
X172577142Y-38667142D01*
X172624761Y-38571904D01*
X172624761Y-37762380D01*
X173005714Y-37762380D02*
X173672380Y-38762380D01*
X173672380Y-37762380D02*
X173005714Y-38762380D01*
X174577142Y-38762380D02*
X174005714Y-38762380D01*
X174291428Y-38762380D02*
X174291428Y-37762380D01*
X174196190Y-37905238D01*
X174100952Y-38000476D01*
X174005714Y-38048095D01*
G04 #@! TO.C,Q1*
X119284761Y-41867619D02*
X119189523Y-41820000D01*
X119094285Y-41724761D01*
X118951428Y-41581904D01*
X118856190Y-41534285D01*
X118760952Y-41534285D01*
X118808571Y-41772380D02*
X118713333Y-41724761D01*
X118618095Y-41629523D01*
X118570476Y-41439047D01*
X118570476Y-41105714D01*
X118618095Y-40915238D01*
X118713333Y-40820000D01*
X118808571Y-40772380D01*
X118999047Y-40772380D01*
X119094285Y-40820000D01*
X119189523Y-40915238D01*
X119237142Y-41105714D01*
X119237142Y-41439047D01*
X119189523Y-41629523D01*
X119094285Y-41724761D01*
X118999047Y-41772380D01*
X118808571Y-41772380D01*
X120189523Y-41772380D02*
X119618095Y-41772380D01*
X119903809Y-41772380D02*
X119903809Y-40772380D01*
X119808571Y-40915238D01*
X119713333Y-41010476D01*
X119618095Y-41058095D01*
G04 #@! TO.C,Q2*
X119284761Y-53297619D02*
X119189523Y-53250000D01*
X119094285Y-53154761D01*
X118951428Y-53011904D01*
X118856190Y-52964285D01*
X118760952Y-52964285D01*
X118808571Y-53202380D02*
X118713333Y-53154761D01*
X118618095Y-53059523D01*
X118570476Y-52869047D01*
X118570476Y-52535714D01*
X118618095Y-52345238D01*
X118713333Y-52250000D01*
X118808571Y-52202380D01*
X118999047Y-52202380D01*
X119094285Y-52250000D01*
X119189523Y-52345238D01*
X119237142Y-52535714D01*
X119237142Y-52869047D01*
X119189523Y-53059523D01*
X119094285Y-53154761D01*
X118999047Y-53202380D01*
X118808571Y-53202380D01*
X119618095Y-52297619D02*
X119665714Y-52250000D01*
X119760952Y-52202380D01*
X119999047Y-52202380D01*
X120094285Y-52250000D01*
X120141904Y-52297619D01*
X120189523Y-52392857D01*
X120189523Y-52488095D01*
X120141904Y-52630952D01*
X119570476Y-53202380D01*
X120189523Y-53202380D01*
G04 #@! TO.C,Q3*
X119284761Y-64727619D02*
X119189523Y-64680000D01*
X119094285Y-64584761D01*
X118951428Y-64441904D01*
X118856190Y-64394285D01*
X118760952Y-64394285D01*
X118808571Y-64632380D02*
X118713333Y-64584761D01*
X118618095Y-64489523D01*
X118570476Y-64299047D01*
X118570476Y-63965714D01*
X118618095Y-63775238D01*
X118713333Y-63680000D01*
X118808571Y-63632380D01*
X118999047Y-63632380D01*
X119094285Y-63680000D01*
X119189523Y-63775238D01*
X119237142Y-63965714D01*
X119237142Y-64299047D01*
X119189523Y-64489523D01*
X119094285Y-64584761D01*
X118999047Y-64632380D01*
X118808571Y-64632380D01*
X119570476Y-63632380D02*
X120189523Y-63632380D01*
X119856190Y-64013333D01*
X119999047Y-64013333D01*
X120094285Y-64060952D01*
X120141904Y-64108571D01*
X120189523Y-64203809D01*
X120189523Y-64441904D01*
X120141904Y-64537142D01*
X120094285Y-64584761D01*
X119999047Y-64632380D01*
X119713333Y-64632380D01*
X119618095Y-64584761D01*
X119570476Y-64537142D01*
G04 #@! TO.C,Q4*
X119284761Y-76157619D02*
X119189523Y-76110000D01*
X119094285Y-76014761D01*
X118951428Y-75871904D01*
X118856190Y-75824285D01*
X118760952Y-75824285D01*
X118808571Y-76062380D02*
X118713333Y-76014761D01*
X118618095Y-75919523D01*
X118570476Y-75729047D01*
X118570476Y-75395714D01*
X118618095Y-75205238D01*
X118713333Y-75110000D01*
X118808571Y-75062380D01*
X118999047Y-75062380D01*
X119094285Y-75110000D01*
X119189523Y-75205238D01*
X119237142Y-75395714D01*
X119237142Y-75729047D01*
X119189523Y-75919523D01*
X119094285Y-76014761D01*
X118999047Y-76062380D01*
X118808571Y-76062380D01*
X120094285Y-75395714D02*
X120094285Y-76062380D01*
X119856190Y-75014761D02*
X119618095Y-75729047D01*
X120237142Y-75729047D01*
G04 #@! TO.C,Q5*
X119284761Y-88857619D02*
X119189523Y-88810000D01*
X119094285Y-88714761D01*
X118951428Y-88571904D01*
X118856190Y-88524285D01*
X118760952Y-88524285D01*
X118808571Y-88762380D02*
X118713333Y-88714761D01*
X118618095Y-88619523D01*
X118570476Y-88429047D01*
X118570476Y-88095714D01*
X118618095Y-87905238D01*
X118713333Y-87810000D01*
X118808571Y-87762380D01*
X118999047Y-87762380D01*
X119094285Y-87810000D01*
X119189523Y-87905238D01*
X119237142Y-88095714D01*
X119237142Y-88429047D01*
X119189523Y-88619523D01*
X119094285Y-88714761D01*
X118999047Y-88762380D01*
X118808571Y-88762380D01*
X120141904Y-87762380D02*
X119665714Y-87762380D01*
X119618095Y-88238571D01*
X119665714Y-88190952D01*
X119760952Y-88143333D01*
X119999047Y-88143333D01*
X120094285Y-88190952D01*
X120141904Y-88238571D01*
X120189523Y-88333809D01*
X120189523Y-88571904D01*
X120141904Y-88667142D01*
X120094285Y-88714761D01*
X119999047Y-88762380D01*
X119760952Y-88762380D01*
X119665714Y-88714761D01*
X119618095Y-88667142D01*
G04 #@! TO.C,Q6*
X165004761Y-69807619D02*
X164909523Y-69760000D01*
X164814285Y-69664761D01*
X164671428Y-69521904D01*
X164576190Y-69474285D01*
X164480952Y-69474285D01*
X164528571Y-69712380D02*
X164433333Y-69664761D01*
X164338095Y-69569523D01*
X164290476Y-69379047D01*
X164290476Y-69045714D01*
X164338095Y-68855238D01*
X164433333Y-68760000D01*
X164528571Y-68712380D01*
X164719047Y-68712380D01*
X164814285Y-68760000D01*
X164909523Y-68855238D01*
X164957142Y-69045714D01*
X164957142Y-69379047D01*
X164909523Y-69569523D01*
X164814285Y-69664761D01*
X164719047Y-69712380D01*
X164528571Y-69712380D01*
X165814285Y-68712380D02*
X165623809Y-68712380D01*
X165528571Y-68760000D01*
X165480952Y-68807619D01*
X165385714Y-68950476D01*
X165338095Y-69140952D01*
X165338095Y-69521904D01*
X165385714Y-69617142D01*
X165433333Y-69664761D01*
X165528571Y-69712380D01*
X165719047Y-69712380D01*
X165814285Y-69664761D01*
X165861904Y-69617142D01*
X165909523Y-69521904D01*
X165909523Y-69283809D01*
X165861904Y-69188571D01*
X165814285Y-69140952D01*
X165719047Y-69093333D01*
X165528571Y-69093333D01*
X165433333Y-69140952D01*
X165385714Y-69188571D01*
X165338095Y-69283809D01*
G04 #@! TO.C,Q7*
X165004761Y-86317619D02*
X164909523Y-86270000D01*
X164814285Y-86174761D01*
X164671428Y-86031904D01*
X164576190Y-85984285D01*
X164480952Y-85984285D01*
X164528571Y-86222380D02*
X164433333Y-86174761D01*
X164338095Y-86079523D01*
X164290476Y-85889047D01*
X164290476Y-85555714D01*
X164338095Y-85365238D01*
X164433333Y-85270000D01*
X164528571Y-85222380D01*
X164719047Y-85222380D01*
X164814285Y-85270000D01*
X164909523Y-85365238D01*
X164957142Y-85555714D01*
X164957142Y-85889047D01*
X164909523Y-86079523D01*
X164814285Y-86174761D01*
X164719047Y-86222380D01*
X164528571Y-86222380D01*
X165290476Y-85222380D02*
X165957142Y-85222380D01*
X165528571Y-86222380D01*
G04 #@! TO.C,R1*
X157313333Y-54412380D02*
X156980000Y-53936190D01*
X156741904Y-54412380D02*
X156741904Y-53412380D01*
X157122857Y-53412380D01*
X157218095Y-53460000D01*
X157265714Y-53507619D01*
X157313333Y-53602857D01*
X157313333Y-53745714D01*
X157265714Y-53840952D01*
X157218095Y-53888571D01*
X157122857Y-53936190D01*
X156741904Y-53936190D01*
X158265714Y-54412380D02*
X157694285Y-54412380D01*
X157980000Y-54412380D02*
X157980000Y-53412380D01*
X157884761Y-53555238D01*
X157789523Y-53650476D01*
X157694285Y-53698095D01*
G04 #@! TO.C,R2*
X157313333Y-49332380D02*
X156980000Y-48856190D01*
X156741904Y-49332380D02*
X156741904Y-48332380D01*
X157122857Y-48332380D01*
X157218095Y-48380000D01*
X157265714Y-48427619D01*
X157313333Y-48522857D01*
X157313333Y-48665714D01*
X157265714Y-48760952D01*
X157218095Y-48808571D01*
X157122857Y-48856190D01*
X156741904Y-48856190D01*
X157694285Y-48427619D02*
X157741904Y-48380000D01*
X157837142Y-48332380D01*
X158075238Y-48332380D01*
X158170476Y-48380000D01*
X158218095Y-48427619D01*
X158265714Y-48522857D01*
X158265714Y-48618095D01*
X158218095Y-48760952D01*
X157646666Y-49332380D01*
X158265714Y-49332380D01*
G04 #@! TO.C,R3*
X157313333Y-44252380D02*
X156980000Y-43776190D01*
X156741904Y-44252380D02*
X156741904Y-43252380D01*
X157122857Y-43252380D01*
X157218095Y-43300000D01*
X157265714Y-43347619D01*
X157313333Y-43442857D01*
X157313333Y-43585714D01*
X157265714Y-43680952D01*
X157218095Y-43728571D01*
X157122857Y-43776190D01*
X156741904Y-43776190D01*
X157646666Y-43252380D02*
X158265714Y-43252380D01*
X157932380Y-43633333D01*
X158075238Y-43633333D01*
X158170476Y-43680952D01*
X158218095Y-43728571D01*
X158265714Y-43823809D01*
X158265714Y-44061904D01*
X158218095Y-44157142D01*
X158170476Y-44204761D01*
X158075238Y-44252380D01*
X157789523Y-44252380D01*
X157694285Y-44204761D01*
X157646666Y-44157142D01*
G04 #@! TO.C,R4*
X157313333Y-39172380D02*
X156980000Y-38696190D01*
X156741904Y-39172380D02*
X156741904Y-38172380D01*
X157122857Y-38172380D01*
X157218095Y-38220000D01*
X157265714Y-38267619D01*
X157313333Y-38362857D01*
X157313333Y-38505714D01*
X157265714Y-38600952D01*
X157218095Y-38648571D01*
X157122857Y-38696190D01*
X156741904Y-38696190D01*
X158170476Y-38505714D02*
X158170476Y-39172380D01*
X157932380Y-38124761D02*
X157694285Y-38839047D01*
X158313333Y-38839047D01*
G04 #@! TO.C,R5*
X187793333Y-41742380D02*
X187460000Y-41266190D01*
X187221904Y-41742380D02*
X187221904Y-40742380D01*
X187602857Y-40742380D01*
X187698095Y-40790000D01*
X187745714Y-40837619D01*
X187793333Y-40932857D01*
X187793333Y-41075714D01*
X187745714Y-41170952D01*
X187698095Y-41218571D01*
X187602857Y-41266190D01*
X187221904Y-41266190D01*
X188698095Y-40742380D02*
X188221904Y-40742380D01*
X188174285Y-41218571D01*
X188221904Y-41170952D01*
X188317142Y-41123333D01*
X188555238Y-41123333D01*
X188650476Y-41170952D01*
X188698095Y-41218571D01*
X188745714Y-41313809D01*
X188745714Y-41551904D01*
X188698095Y-41647142D01*
X188650476Y-41694761D01*
X188555238Y-41742380D01*
X188317142Y-41742380D01*
X188221904Y-41694761D01*
X188174285Y-41647142D01*
G04 #@! TO.C,R6*
X187793333Y-46822380D02*
X187460000Y-46346190D01*
X187221904Y-46822380D02*
X187221904Y-45822380D01*
X187602857Y-45822380D01*
X187698095Y-45870000D01*
X187745714Y-45917619D01*
X187793333Y-46012857D01*
X187793333Y-46155714D01*
X187745714Y-46250952D01*
X187698095Y-46298571D01*
X187602857Y-46346190D01*
X187221904Y-46346190D01*
X188650476Y-45822380D02*
X188460000Y-45822380D01*
X188364761Y-45870000D01*
X188317142Y-45917619D01*
X188221904Y-46060476D01*
X188174285Y-46250952D01*
X188174285Y-46631904D01*
X188221904Y-46727142D01*
X188269523Y-46774761D01*
X188364761Y-46822380D01*
X188555238Y-46822380D01*
X188650476Y-46774761D01*
X188698095Y-46727142D01*
X188745714Y-46631904D01*
X188745714Y-46393809D01*
X188698095Y-46298571D01*
X188650476Y-46250952D01*
X188555238Y-46203333D01*
X188364761Y-46203333D01*
X188269523Y-46250952D01*
X188221904Y-46298571D01*
X188174285Y-46393809D01*
G04 #@! TO.C,R7*
X187793333Y-51902380D02*
X187460000Y-51426190D01*
X187221904Y-51902380D02*
X187221904Y-50902380D01*
X187602857Y-50902380D01*
X187698095Y-50950000D01*
X187745714Y-50997619D01*
X187793333Y-51092857D01*
X187793333Y-51235714D01*
X187745714Y-51330952D01*
X187698095Y-51378571D01*
X187602857Y-51426190D01*
X187221904Y-51426190D01*
X188126666Y-50902380D02*
X188793333Y-50902380D01*
X188364761Y-51902380D01*
G04 #@! TO.C,R8*
X187793333Y-58252380D02*
X187460000Y-57776190D01*
X187221904Y-58252380D02*
X187221904Y-57252380D01*
X187602857Y-57252380D01*
X187698095Y-57300000D01*
X187745714Y-57347619D01*
X187793333Y-57442857D01*
X187793333Y-57585714D01*
X187745714Y-57680952D01*
X187698095Y-57728571D01*
X187602857Y-57776190D01*
X187221904Y-57776190D01*
X188364761Y-57680952D02*
X188269523Y-57633333D01*
X188221904Y-57585714D01*
X188174285Y-57490476D01*
X188174285Y-57442857D01*
X188221904Y-57347619D01*
X188269523Y-57300000D01*
X188364761Y-57252380D01*
X188555238Y-57252380D01*
X188650476Y-57300000D01*
X188698095Y-57347619D01*
X188745714Y-57442857D01*
X188745714Y-57490476D01*
X188698095Y-57585714D01*
X188650476Y-57633333D01*
X188555238Y-57680952D01*
X188364761Y-57680952D01*
X188269523Y-57728571D01*
X188221904Y-57776190D01*
X188174285Y-57871428D01*
X188174285Y-58061904D01*
X188221904Y-58157142D01*
X188269523Y-58204761D01*
X188364761Y-58252380D01*
X188555238Y-58252380D01*
X188650476Y-58204761D01*
X188698095Y-58157142D01*
X188745714Y-58061904D01*
X188745714Y-57871428D01*
X188698095Y-57776190D01*
X188650476Y-57728571D01*
X188555238Y-57680952D01*
G04 #@! TO.C,R9*
X111562380Y-44616666D02*
X111086190Y-44950000D01*
X111562380Y-45188095D02*
X110562380Y-45188095D01*
X110562380Y-44807142D01*
X110610000Y-44711904D01*
X110657619Y-44664285D01*
X110752857Y-44616666D01*
X110895714Y-44616666D01*
X110990952Y-44664285D01*
X111038571Y-44711904D01*
X111086190Y-44807142D01*
X111086190Y-45188095D01*
X111562380Y-44140476D02*
X111562380Y-43950000D01*
X111514761Y-43854761D01*
X111467142Y-43807142D01*
X111324285Y-43711904D01*
X111133809Y-43664285D01*
X110752857Y-43664285D01*
X110657619Y-43711904D01*
X110610000Y-43759523D01*
X110562380Y-43854761D01*
X110562380Y-44045238D01*
X110610000Y-44140476D01*
X110657619Y-44188095D01*
X110752857Y-44235714D01*
X110990952Y-44235714D01*
X111086190Y-44188095D01*
X111133809Y-44140476D01*
X111181428Y-44045238D01*
X111181428Y-43854761D01*
X111133809Y-43759523D01*
X111086190Y-43711904D01*
X110990952Y-43664285D01*
G04 #@! TO.C,R10*
X124262380Y-45092857D02*
X123786190Y-45426190D01*
X124262380Y-45664285D02*
X123262380Y-45664285D01*
X123262380Y-45283333D01*
X123310000Y-45188095D01*
X123357619Y-45140476D01*
X123452857Y-45092857D01*
X123595714Y-45092857D01*
X123690952Y-45140476D01*
X123738571Y-45188095D01*
X123786190Y-45283333D01*
X123786190Y-45664285D01*
X124262380Y-44140476D02*
X124262380Y-44711904D01*
X124262380Y-44426190D02*
X123262380Y-44426190D01*
X123405238Y-44521428D01*
X123500476Y-44616666D01*
X123548095Y-44711904D01*
X123262380Y-43521428D02*
X123262380Y-43426190D01*
X123310000Y-43330952D01*
X123357619Y-43283333D01*
X123452857Y-43235714D01*
X123643333Y-43188095D01*
X123881428Y-43188095D01*
X124071904Y-43235714D01*
X124167142Y-43283333D01*
X124214761Y-43330952D01*
X124262380Y-43426190D01*
X124262380Y-43521428D01*
X124214761Y-43616666D01*
X124167142Y-43664285D01*
X124071904Y-43711904D01*
X123881428Y-43759523D01*
X123643333Y-43759523D01*
X123452857Y-43711904D01*
X123357619Y-43664285D01*
X123310000Y-43616666D01*
X123262380Y-43521428D01*
G04 #@! TO.C,R11*
X111562380Y-56522857D02*
X111086190Y-56856190D01*
X111562380Y-57094285D02*
X110562380Y-57094285D01*
X110562380Y-56713333D01*
X110610000Y-56618095D01*
X110657619Y-56570476D01*
X110752857Y-56522857D01*
X110895714Y-56522857D01*
X110990952Y-56570476D01*
X111038571Y-56618095D01*
X111086190Y-56713333D01*
X111086190Y-57094285D01*
X111562380Y-55570476D02*
X111562380Y-56141904D01*
X111562380Y-55856190D02*
X110562380Y-55856190D01*
X110705238Y-55951428D01*
X110800476Y-56046666D01*
X110848095Y-56141904D01*
X111562380Y-54618095D02*
X111562380Y-55189523D01*
X111562380Y-54903809D02*
X110562380Y-54903809D01*
X110705238Y-54999047D01*
X110800476Y-55094285D01*
X110848095Y-55189523D01*
G04 #@! TO.C,R12*
X111562380Y-67952857D02*
X111086190Y-68286190D01*
X111562380Y-68524285D02*
X110562380Y-68524285D01*
X110562380Y-68143333D01*
X110610000Y-68048095D01*
X110657619Y-68000476D01*
X110752857Y-67952857D01*
X110895714Y-67952857D01*
X110990952Y-68000476D01*
X111038571Y-68048095D01*
X111086190Y-68143333D01*
X111086190Y-68524285D01*
X111562380Y-67000476D02*
X111562380Y-67571904D01*
X111562380Y-67286190D02*
X110562380Y-67286190D01*
X110705238Y-67381428D01*
X110800476Y-67476666D01*
X110848095Y-67571904D01*
X110657619Y-66619523D02*
X110610000Y-66571904D01*
X110562380Y-66476666D01*
X110562380Y-66238571D01*
X110610000Y-66143333D01*
X110657619Y-66095714D01*
X110752857Y-66048095D01*
X110848095Y-66048095D01*
X110990952Y-66095714D01*
X111562380Y-66667142D01*
X111562380Y-66048095D01*
G04 #@! TO.C,R13*
X111562380Y-80652857D02*
X111086190Y-80986190D01*
X111562380Y-81224285D02*
X110562380Y-81224285D01*
X110562380Y-80843333D01*
X110610000Y-80748095D01*
X110657619Y-80700476D01*
X110752857Y-80652857D01*
X110895714Y-80652857D01*
X110990952Y-80700476D01*
X111038571Y-80748095D01*
X111086190Y-80843333D01*
X111086190Y-81224285D01*
X111562380Y-79700476D02*
X111562380Y-80271904D01*
X111562380Y-79986190D02*
X110562380Y-79986190D01*
X110705238Y-80081428D01*
X110800476Y-80176666D01*
X110848095Y-80271904D01*
X110562380Y-79367142D02*
X110562380Y-78748095D01*
X110943333Y-79081428D01*
X110943333Y-78938571D01*
X110990952Y-78843333D01*
X111038571Y-78795714D01*
X111133809Y-78748095D01*
X111371904Y-78748095D01*
X111467142Y-78795714D01*
X111514761Y-78843333D01*
X111562380Y-78938571D01*
X111562380Y-79224285D01*
X111514761Y-79319523D01*
X111467142Y-79367142D01*
G04 #@! TO.C,R14*
X111562380Y-93352857D02*
X111086190Y-93686190D01*
X111562380Y-93924285D02*
X110562380Y-93924285D01*
X110562380Y-93543333D01*
X110610000Y-93448095D01*
X110657619Y-93400476D01*
X110752857Y-93352857D01*
X110895714Y-93352857D01*
X110990952Y-93400476D01*
X111038571Y-93448095D01*
X111086190Y-93543333D01*
X111086190Y-93924285D01*
X111562380Y-92400476D02*
X111562380Y-92971904D01*
X111562380Y-92686190D02*
X110562380Y-92686190D01*
X110705238Y-92781428D01*
X110800476Y-92876666D01*
X110848095Y-92971904D01*
X110895714Y-91543333D02*
X111562380Y-91543333D01*
X110514761Y-91781428D02*
X111229047Y-92019523D01*
X111229047Y-91400476D01*
G04 #@! TO.C,R15*
X157282380Y-74302857D02*
X156806190Y-74636190D01*
X157282380Y-74874285D02*
X156282380Y-74874285D01*
X156282380Y-74493333D01*
X156330000Y-74398095D01*
X156377619Y-74350476D01*
X156472857Y-74302857D01*
X156615714Y-74302857D01*
X156710952Y-74350476D01*
X156758571Y-74398095D01*
X156806190Y-74493333D01*
X156806190Y-74874285D01*
X157282380Y-73350476D02*
X157282380Y-73921904D01*
X157282380Y-73636190D02*
X156282380Y-73636190D01*
X156425238Y-73731428D01*
X156520476Y-73826666D01*
X156568095Y-73921904D01*
X156282380Y-72445714D02*
X156282380Y-72921904D01*
X156758571Y-72969523D01*
X156710952Y-72921904D01*
X156663333Y-72826666D01*
X156663333Y-72588571D01*
X156710952Y-72493333D01*
X156758571Y-72445714D01*
X156853809Y-72398095D01*
X157091904Y-72398095D01*
X157187142Y-72445714D01*
X157234761Y-72493333D01*
X157282380Y-72588571D01*
X157282380Y-72826666D01*
X157234761Y-72921904D01*
X157187142Y-72969523D01*
G04 #@! TO.C,R16*
X157282380Y-90812857D02*
X156806190Y-91146190D01*
X157282380Y-91384285D02*
X156282380Y-91384285D01*
X156282380Y-91003333D01*
X156330000Y-90908095D01*
X156377619Y-90860476D01*
X156472857Y-90812857D01*
X156615714Y-90812857D01*
X156710952Y-90860476D01*
X156758571Y-90908095D01*
X156806190Y-91003333D01*
X156806190Y-91384285D01*
X157282380Y-89860476D02*
X157282380Y-90431904D01*
X157282380Y-90146190D02*
X156282380Y-90146190D01*
X156425238Y-90241428D01*
X156520476Y-90336666D01*
X156568095Y-90431904D01*
X156282380Y-89003333D02*
X156282380Y-89193809D01*
X156330000Y-89289047D01*
X156377619Y-89336666D01*
X156520476Y-89431904D01*
X156710952Y-89479523D01*
X157091904Y-89479523D01*
X157187142Y-89431904D01*
X157234761Y-89384285D01*
X157282380Y-89289047D01*
X157282380Y-89098571D01*
X157234761Y-89003333D01*
X157187142Y-88955714D01*
X157091904Y-88908095D01*
X156853809Y-88908095D01*
X156758571Y-88955714D01*
X156710952Y-89003333D01*
X156663333Y-89098571D01*
X156663333Y-89289047D01*
X156710952Y-89384285D01*
X156758571Y-89431904D01*
X156853809Y-89479523D01*
G04 #@! TO.C,R17*
X124262380Y-56522857D02*
X123786190Y-56856190D01*
X124262380Y-57094285D02*
X123262380Y-57094285D01*
X123262380Y-56713333D01*
X123310000Y-56618095D01*
X123357619Y-56570476D01*
X123452857Y-56522857D01*
X123595714Y-56522857D01*
X123690952Y-56570476D01*
X123738571Y-56618095D01*
X123786190Y-56713333D01*
X123786190Y-57094285D01*
X124262380Y-55570476D02*
X124262380Y-56141904D01*
X124262380Y-55856190D02*
X123262380Y-55856190D01*
X123405238Y-55951428D01*
X123500476Y-56046666D01*
X123548095Y-56141904D01*
X123262380Y-55237142D02*
X123262380Y-54570476D01*
X124262380Y-54999047D01*
G04 #@! TO.C,R18*
X124262380Y-67952857D02*
X123786190Y-68286190D01*
X124262380Y-68524285D02*
X123262380Y-68524285D01*
X123262380Y-68143333D01*
X123310000Y-68048095D01*
X123357619Y-68000476D01*
X123452857Y-67952857D01*
X123595714Y-67952857D01*
X123690952Y-68000476D01*
X123738571Y-68048095D01*
X123786190Y-68143333D01*
X123786190Y-68524285D01*
X124262380Y-67000476D02*
X124262380Y-67571904D01*
X124262380Y-67286190D02*
X123262380Y-67286190D01*
X123405238Y-67381428D01*
X123500476Y-67476666D01*
X123548095Y-67571904D01*
X123690952Y-66429047D02*
X123643333Y-66524285D01*
X123595714Y-66571904D01*
X123500476Y-66619523D01*
X123452857Y-66619523D01*
X123357619Y-66571904D01*
X123310000Y-66524285D01*
X123262380Y-66429047D01*
X123262380Y-66238571D01*
X123310000Y-66143333D01*
X123357619Y-66095714D01*
X123452857Y-66048095D01*
X123500476Y-66048095D01*
X123595714Y-66095714D01*
X123643333Y-66143333D01*
X123690952Y-66238571D01*
X123690952Y-66429047D01*
X123738571Y-66524285D01*
X123786190Y-66571904D01*
X123881428Y-66619523D01*
X124071904Y-66619523D01*
X124167142Y-66571904D01*
X124214761Y-66524285D01*
X124262380Y-66429047D01*
X124262380Y-66238571D01*
X124214761Y-66143333D01*
X124167142Y-66095714D01*
X124071904Y-66048095D01*
X123881428Y-66048095D01*
X123786190Y-66095714D01*
X123738571Y-66143333D01*
X123690952Y-66238571D01*
G04 #@! TO.C,R19*
X124262380Y-80652857D02*
X123786190Y-80986190D01*
X124262380Y-81224285D02*
X123262380Y-81224285D01*
X123262380Y-80843333D01*
X123310000Y-80748095D01*
X123357619Y-80700476D01*
X123452857Y-80652857D01*
X123595714Y-80652857D01*
X123690952Y-80700476D01*
X123738571Y-80748095D01*
X123786190Y-80843333D01*
X123786190Y-81224285D01*
X124262380Y-79700476D02*
X124262380Y-80271904D01*
X124262380Y-79986190D02*
X123262380Y-79986190D01*
X123405238Y-80081428D01*
X123500476Y-80176666D01*
X123548095Y-80271904D01*
X124262380Y-79224285D02*
X124262380Y-79033809D01*
X124214761Y-78938571D01*
X124167142Y-78890952D01*
X124024285Y-78795714D01*
X123833809Y-78748095D01*
X123452857Y-78748095D01*
X123357619Y-78795714D01*
X123310000Y-78843333D01*
X123262380Y-78938571D01*
X123262380Y-79129047D01*
X123310000Y-79224285D01*
X123357619Y-79271904D01*
X123452857Y-79319523D01*
X123690952Y-79319523D01*
X123786190Y-79271904D01*
X123833809Y-79224285D01*
X123881428Y-79129047D01*
X123881428Y-78938571D01*
X123833809Y-78843333D01*
X123786190Y-78795714D01*
X123690952Y-78748095D01*
G04 #@! TO.C,R20*
X124262380Y-93352857D02*
X123786190Y-93686190D01*
X124262380Y-93924285D02*
X123262380Y-93924285D01*
X123262380Y-93543333D01*
X123310000Y-93448095D01*
X123357619Y-93400476D01*
X123452857Y-93352857D01*
X123595714Y-93352857D01*
X123690952Y-93400476D01*
X123738571Y-93448095D01*
X123786190Y-93543333D01*
X123786190Y-93924285D01*
X123357619Y-92971904D02*
X123310000Y-92924285D01*
X123262380Y-92829047D01*
X123262380Y-92590952D01*
X123310000Y-92495714D01*
X123357619Y-92448095D01*
X123452857Y-92400476D01*
X123548095Y-92400476D01*
X123690952Y-92448095D01*
X124262380Y-93019523D01*
X124262380Y-92400476D01*
X123262380Y-91781428D02*
X123262380Y-91686190D01*
X123310000Y-91590952D01*
X123357619Y-91543333D01*
X123452857Y-91495714D01*
X123643333Y-91448095D01*
X123881428Y-91448095D01*
X124071904Y-91495714D01*
X124167142Y-91543333D01*
X124214761Y-91590952D01*
X124262380Y-91686190D01*
X124262380Y-91781428D01*
X124214761Y-91876666D01*
X124167142Y-91924285D01*
X124071904Y-91971904D01*
X123881428Y-92019523D01*
X123643333Y-92019523D01*
X123452857Y-91971904D01*
X123357619Y-91924285D01*
X123310000Y-91876666D01*
X123262380Y-91781428D01*
G04 #@! TO.C,R21*
X169982380Y-74302857D02*
X169506190Y-74636190D01*
X169982380Y-74874285D02*
X168982380Y-74874285D01*
X168982380Y-74493333D01*
X169030000Y-74398095D01*
X169077619Y-74350476D01*
X169172857Y-74302857D01*
X169315714Y-74302857D01*
X169410952Y-74350476D01*
X169458571Y-74398095D01*
X169506190Y-74493333D01*
X169506190Y-74874285D01*
X169077619Y-73921904D02*
X169030000Y-73874285D01*
X168982380Y-73779047D01*
X168982380Y-73540952D01*
X169030000Y-73445714D01*
X169077619Y-73398095D01*
X169172857Y-73350476D01*
X169268095Y-73350476D01*
X169410952Y-73398095D01*
X169982380Y-73969523D01*
X169982380Y-73350476D01*
X169982380Y-72398095D02*
X169982380Y-72969523D01*
X169982380Y-72683809D02*
X168982380Y-72683809D01*
X169125238Y-72779047D01*
X169220476Y-72874285D01*
X169268095Y-72969523D01*
G04 #@! TO.C,R22*
X169982380Y-90812857D02*
X169506190Y-91146190D01*
X169982380Y-91384285D02*
X168982380Y-91384285D01*
X168982380Y-91003333D01*
X169030000Y-90908095D01*
X169077619Y-90860476D01*
X169172857Y-90812857D01*
X169315714Y-90812857D01*
X169410952Y-90860476D01*
X169458571Y-90908095D01*
X169506190Y-91003333D01*
X169506190Y-91384285D01*
X169077619Y-90431904D02*
X169030000Y-90384285D01*
X168982380Y-90289047D01*
X168982380Y-90050952D01*
X169030000Y-89955714D01*
X169077619Y-89908095D01*
X169172857Y-89860476D01*
X169268095Y-89860476D01*
X169410952Y-89908095D01*
X169982380Y-90479523D01*
X169982380Y-89860476D01*
X169077619Y-89479523D02*
X169030000Y-89431904D01*
X168982380Y-89336666D01*
X168982380Y-89098571D01*
X169030000Y-89003333D01*
X169077619Y-88955714D01*
X169172857Y-88908095D01*
X169268095Y-88908095D01*
X169410952Y-88955714D01*
X169982380Y-89527142D01*
X169982380Y-88908095D01*
G04 #@! TD*
M02*
