M48
;DRILL file {KiCad 5.0.0+dfsg1-2} date Tue Nov 20 21:02:27 2018
;FORMAT={-:-/ absolute / inch / decimal}
FMAT,2
INCH,TZ
T1C0.0276
T2C0.0295
T3C0.0315
T4C0.0400
%
G90
G05
M72
T1
X6.05Y-2.2
X6.35Y-2.2
X6.05Y-2.
X6.35Y-2.
X4.95Y-2.5
X4.95Y-2.8
X4.45Y-3.5
X4.45Y-3.8
X6.05Y-1.8
X6.35Y-1.8
X6.25Y-2.75
X6.25Y-3.05
X6.75Y-3.4
X6.75Y-3.7
X6.25Y-3.4
X6.25Y-3.7
X4.95Y-3.
X4.95Y-3.3
X7.25Y-2.2
X7.55Y-2.2
X7.25Y-1.75
X7.55Y-1.75
X7.25Y-1.95
X7.55Y-1.95
X4.45Y-1.6
X4.45Y-1.9
X4.45Y-3.
X4.45Y-3.3
X4.45Y-2.5
X4.45Y-2.8
X4.95Y-2.05
X4.95Y-2.35
X4.95Y-3.5
X4.95Y-3.8
X4.95Y-1.6
X4.95Y-1.9
X4.45Y-2.05
X4.45Y-2.35
X7.25Y-1.55
X7.55Y-1.55
X6.75Y-2.75
X6.75Y-3.05
X6.05Y-1.6
X6.35Y-1.6
T2
X4.65Y-2.25
X4.7Y-2.2
X4.75Y-2.25
X6.45Y-3.55
X6.5Y-3.5
X6.55Y-3.55
X4.65Y-3.15
X4.7Y-3.1
X4.75Y-3.15
X4.65Y-3.65
X4.7Y-3.6
X4.75Y-3.65
X4.65Y-1.8
X4.7Y-1.75
X4.75Y-1.8
X6.45Y-2.9
X6.5Y-2.85
X6.55Y-2.9
X4.65Y-2.7
X4.7Y-2.65
X4.75Y-2.7
T3
X5.5Y-1.6
X5.5Y-1.7
X5.5Y-1.8
X5.5Y-1.9
X5.5Y-2.
X5.5Y-2.1
X5.5Y-2.2
X5.5Y-2.3
X5.5Y-2.4
X5.5Y-2.5
X5.8Y-1.6
X5.8Y-1.7
X5.8Y-1.8
X5.8Y-1.9
X5.8Y-2.
X5.8Y-2.1
X5.8Y-2.2
X5.8Y-2.3
X5.8Y-2.4
X5.8Y-2.5
X5.5Y-2.8
X5.5Y-2.9
X5.5Y-3.
X5.5Y-3.1
X5.5Y-3.2
X5.5Y-3.3
X5.5Y-3.4
X5.5Y-3.5
X5.8Y-2.8
X5.8Y-2.9
X5.8Y-3.
X5.8Y-3.1
X5.8Y-3.2
X5.8Y-3.3
X5.8Y-3.4
X5.8Y-3.5
X6.65Y-1.6
X6.65Y-1.7
X6.65Y-1.8
X6.65Y-1.9
X6.65Y-2.
X6.65Y-2.1
X6.65Y-2.2
X6.65Y-2.3
X6.95Y-1.6
X6.95Y-1.7
X6.95Y-1.8
X6.95Y-1.9
X6.95Y-2.
X6.95Y-2.1
X6.95Y-2.2
X6.95Y-2.3
T4
X7.35Y-2.6
X7.35Y-2.7
X7.35Y-2.8
X7.35Y-2.9
X7.35Y-3.
X7.35Y-3.1
X7.35Y-3.2
X7.35Y-3.3
X7.35Y-3.4
X7.35Y-3.5
X7.35Y-3.6
X7.35Y-3.7
X7.35Y-3.8
X7.45Y-2.6
X7.45Y-2.7
X7.45Y-2.8
X7.45Y-2.9
X7.45Y-3.
X7.45Y-3.1
X7.45Y-3.2
X7.45Y-3.3
X7.45Y-3.4
X7.45Y-3.5
X7.45Y-3.6
X7.45Y-3.7
X7.45Y-3.8
T0
M30
