G04 #@! TF.GenerationSoftware,KiCad,Pcbnew,5.0.0+dfsg1-2*
G04 #@! TF.CreationDate,2018-11-20T21:01:12-06:00*
G04 #@! TF.ProjectId,49es,343965732E6B696361645F7063620000,rev?*
G04 #@! TF.SameCoordinates,Original*
G04 #@! TF.FileFunction,Soldermask,Top*
G04 #@! TF.FilePolarity,Negative*
%FSLAX46Y46*%
G04 Gerber Fmt 4.6, Leading zero omitted, Abs format (unit mm)*
G04 Created by KiCad (PCBNEW 5.0.0+dfsg1-2) date Tue Nov 20 21:01:12 2018*
%MOMM*%
%LPD*%
G01*
G04 APERTURE LIST*
%ADD10O,2.800000X2.000000*%
%ADD11R,2.800000X2.000000*%
%ADD12R,2.127200X2.127200*%
%ADD13O,2.127200X2.127200*%
%ADD14R,1.500000X2.200000*%
%ADD15C,0.100000*%
%ADD16C,1.500000*%
%ADD17O,1.800000X1.800000*%
%ADD18C,1.800000*%
G04 APERTURE END LIST*
D10*
G04 #@! TO.C,3-to-8*
X147320000Y-71120000D03*
X139700000Y-88900000D03*
X147320000Y-73660000D03*
X139700000Y-86360000D03*
X147320000Y-76200000D03*
X139700000Y-83820000D03*
X147320000Y-78740000D03*
X139700000Y-81280000D03*
X147320000Y-81280000D03*
X139700000Y-78740000D03*
X147320000Y-83820000D03*
X139700000Y-76200000D03*
X147320000Y-86360000D03*
X139700000Y-73660000D03*
X147320000Y-88900000D03*
D11*
X139700000Y-71120000D03*
G04 #@! TD*
D12*
G04 #@! TO.C,J1*
X186690000Y-66040000D03*
D13*
X189230000Y-66040000D03*
X186690000Y-68580000D03*
X189230000Y-68580000D03*
X186690000Y-71120000D03*
X189230000Y-71120000D03*
X186690000Y-73660000D03*
X189230000Y-73660000D03*
X186690000Y-76200000D03*
X189230000Y-76200000D03*
X186690000Y-78740000D03*
X189230000Y-78740000D03*
X186690000Y-81280000D03*
X189230000Y-81280000D03*
X186690000Y-83820000D03*
X189230000Y-83820000D03*
X186690000Y-86360000D03*
X189230000Y-86360000D03*
X186690000Y-88900000D03*
X189230000Y-88900000D03*
X186690000Y-91440000D03*
X189230000Y-91440000D03*
X186690000Y-93980000D03*
X189230000Y-93980000D03*
X186690000Y-96520000D03*
X189230000Y-96520000D03*
G04 #@! TD*
D11*
G04 #@! TO.C,MSP1*
X139700000Y-40640000D03*
D10*
X147320000Y-63500000D03*
X139700000Y-43180000D03*
X147320000Y-60960000D03*
X139700000Y-45720000D03*
X147320000Y-58420000D03*
X139700000Y-48260000D03*
X147320000Y-55880000D03*
X139700000Y-50800000D03*
X147320000Y-53340000D03*
X139700000Y-53340000D03*
X147320000Y-50800000D03*
X139700000Y-55880000D03*
X147320000Y-48260000D03*
X139700000Y-58420000D03*
X147320000Y-45720000D03*
X139700000Y-60960000D03*
X147320000Y-43180000D03*
X139700000Y-63500000D03*
X147320000Y-40640000D03*
G04 #@! TD*
D11*
G04 #@! TO.C,MUX1*
X168910000Y-40640000D03*
D10*
X176530000Y-58420000D03*
X168910000Y-43180000D03*
X176530000Y-55880000D03*
X168910000Y-45720000D03*
X176530000Y-53340000D03*
X168910000Y-48260000D03*
X176530000Y-50800000D03*
X168910000Y-50800000D03*
X176530000Y-48260000D03*
X168910000Y-53340000D03*
X176530000Y-45720000D03*
X168910000Y-55880000D03*
X176530000Y-43180000D03*
X168910000Y-58420000D03*
X176530000Y-40640000D03*
G04 #@! TD*
D14*
G04 #@! TO.C,Q1*
X118110000Y-46120000D03*
D15*
G36*
X121061756Y-45021806D02*
X121098159Y-45027206D01*
X121133857Y-45036147D01*
X121168506Y-45048545D01*
X121201774Y-45064280D01*
X121233339Y-45083199D01*
X121262897Y-45105121D01*
X121290165Y-45129835D01*
X121314879Y-45157103D01*
X121336801Y-45186661D01*
X121355720Y-45218226D01*
X121371455Y-45251494D01*
X121383853Y-45286143D01*
X121392794Y-45321841D01*
X121398194Y-45358244D01*
X121400000Y-45395000D01*
X121400000Y-46845000D01*
X121398194Y-46881756D01*
X121392794Y-46918159D01*
X121383853Y-46953857D01*
X121371455Y-46988506D01*
X121355720Y-47021774D01*
X121336801Y-47053339D01*
X121314879Y-47082897D01*
X121290165Y-47110165D01*
X121262897Y-47134879D01*
X121233339Y-47156801D01*
X121201774Y-47175720D01*
X121168506Y-47191455D01*
X121133857Y-47203853D01*
X121098159Y-47212794D01*
X121061756Y-47218194D01*
X121025000Y-47220000D01*
X120275000Y-47220000D01*
X120238244Y-47218194D01*
X120201841Y-47212794D01*
X120166143Y-47203853D01*
X120131494Y-47191455D01*
X120098226Y-47175720D01*
X120066661Y-47156801D01*
X120037103Y-47134879D01*
X120009835Y-47110165D01*
X119985121Y-47082897D01*
X119963199Y-47053339D01*
X119944280Y-47021774D01*
X119928545Y-46988506D01*
X119916147Y-46953857D01*
X119907206Y-46918159D01*
X119901806Y-46881756D01*
X119900000Y-46845000D01*
X119900000Y-45395000D01*
X119901806Y-45358244D01*
X119907206Y-45321841D01*
X119916147Y-45286143D01*
X119928545Y-45251494D01*
X119944280Y-45218226D01*
X119963199Y-45186661D01*
X119985121Y-45157103D01*
X120009835Y-45129835D01*
X120037103Y-45105121D01*
X120066661Y-45083199D01*
X120098226Y-45064280D01*
X120131494Y-45048545D01*
X120166143Y-45036147D01*
X120201841Y-45027206D01*
X120238244Y-45021806D01*
X120275000Y-45020000D01*
X121025000Y-45020000D01*
X121061756Y-45021806D01*
X121061756Y-45021806D01*
G37*
D16*
X120650000Y-46120000D03*
D15*
G36*
X119791756Y-42951806D02*
X119828159Y-42957206D01*
X119863857Y-42966147D01*
X119898506Y-42978545D01*
X119931774Y-42994280D01*
X119963339Y-43013199D01*
X119992897Y-43035121D01*
X120020165Y-43059835D01*
X120044879Y-43087103D01*
X120066801Y-43116661D01*
X120085720Y-43148226D01*
X120101455Y-43181494D01*
X120113853Y-43216143D01*
X120122794Y-43251841D01*
X120128194Y-43288244D01*
X120130000Y-43325000D01*
X120130000Y-44775000D01*
X120128194Y-44811756D01*
X120122794Y-44848159D01*
X120113853Y-44883857D01*
X120101455Y-44918506D01*
X120085720Y-44951774D01*
X120066801Y-44983339D01*
X120044879Y-45012897D01*
X120020165Y-45040165D01*
X119992897Y-45064879D01*
X119963339Y-45086801D01*
X119931774Y-45105720D01*
X119898506Y-45121455D01*
X119863857Y-45133853D01*
X119828159Y-45142794D01*
X119791756Y-45148194D01*
X119755000Y-45150000D01*
X119005000Y-45150000D01*
X118968244Y-45148194D01*
X118931841Y-45142794D01*
X118896143Y-45133853D01*
X118861494Y-45121455D01*
X118828226Y-45105720D01*
X118796661Y-45086801D01*
X118767103Y-45064879D01*
X118739835Y-45040165D01*
X118715121Y-45012897D01*
X118693199Y-44983339D01*
X118674280Y-44951774D01*
X118658545Y-44918506D01*
X118646147Y-44883857D01*
X118637206Y-44848159D01*
X118631806Y-44811756D01*
X118630000Y-44775000D01*
X118630000Y-43325000D01*
X118631806Y-43288244D01*
X118637206Y-43251841D01*
X118646147Y-43216143D01*
X118658545Y-43181494D01*
X118674280Y-43148226D01*
X118693199Y-43116661D01*
X118715121Y-43087103D01*
X118739835Y-43059835D01*
X118767103Y-43035121D01*
X118796661Y-43013199D01*
X118828226Y-42994280D01*
X118861494Y-42978545D01*
X118896143Y-42966147D01*
X118931841Y-42957206D01*
X118968244Y-42951806D01*
X119005000Y-42950000D01*
X119755000Y-42950000D01*
X119791756Y-42951806D01*
X119791756Y-42951806D01*
G37*
D16*
X119380000Y-44050000D03*
G04 #@! TD*
D15*
G04 #@! TO.C,Q2*
G36*
X119791756Y-54381806D02*
X119828159Y-54387206D01*
X119863857Y-54396147D01*
X119898506Y-54408545D01*
X119931774Y-54424280D01*
X119963339Y-54443199D01*
X119992897Y-54465121D01*
X120020165Y-54489835D01*
X120044879Y-54517103D01*
X120066801Y-54546661D01*
X120085720Y-54578226D01*
X120101455Y-54611494D01*
X120113853Y-54646143D01*
X120122794Y-54681841D01*
X120128194Y-54718244D01*
X120130000Y-54755000D01*
X120130000Y-56205000D01*
X120128194Y-56241756D01*
X120122794Y-56278159D01*
X120113853Y-56313857D01*
X120101455Y-56348506D01*
X120085720Y-56381774D01*
X120066801Y-56413339D01*
X120044879Y-56442897D01*
X120020165Y-56470165D01*
X119992897Y-56494879D01*
X119963339Y-56516801D01*
X119931774Y-56535720D01*
X119898506Y-56551455D01*
X119863857Y-56563853D01*
X119828159Y-56572794D01*
X119791756Y-56578194D01*
X119755000Y-56580000D01*
X119005000Y-56580000D01*
X118968244Y-56578194D01*
X118931841Y-56572794D01*
X118896143Y-56563853D01*
X118861494Y-56551455D01*
X118828226Y-56535720D01*
X118796661Y-56516801D01*
X118767103Y-56494879D01*
X118739835Y-56470165D01*
X118715121Y-56442897D01*
X118693199Y-56413339D01*
X118674280Y-56381774D01*
X118658545Y-56348506D01*
X118646147Y-56313857D01*
X118637206Y-56278159D01*
X118631806Y-56241756D01*
X118630000Y-56205000D01*
X118630000Y-54755000D01*
X118631806Y-54718244D01*
X118637206Y-54681841D01*
X118646147Y-54646143D01*
X118658545Y-54611494D01*
X118674280Y-54578226D01*
X118693199Y-54546661D01*
X118715121Y-54517103D01*
X118739835Y-54489835D01*
X118767103Y-54465121D01*
X118796661Y-54443199D01*
X118828226Y-54424280D01*
X118861494Y-54408545D01*
X118896143Y-54396147D01*
X118931841Y-54387206D01*
X118968244Y-54381806D01*
X119005000Y-54380000D01*
X119755000Y-54380000D01*
X119791756Y-54381806D01*
X119791756Y-54381806D01*
G37*
D16*
X119380000Y-55480000D03*
D15*
G36*
X121061756Y-56451806D02*
X121098159Y-56457206D01*
X121133857Y-56466147D01*
X121168506Y-56478545D01*
X121201774Y-56494280D01*
X121233339Y-56513199D01*
X121262897Y-56535121D01*
X121290165Y-56559835D01*
X121314879Y-56587103D01*
X121336801Y-56616661D01*
X121355720Y-56648226D01*
X121371455Y-56681494D01*
X121383853Y-56716143D01*
X121392794Y-56751841D01*
X121398194Y-56788244D01*
X121400000Y-56825000D01*
X121400000Y-58275000D01*
X121398194Y-58311756D01*
X121392794Y-58348159D01*
X121383853Y-58383857D01*
X121371455Y-58418506D01*
X121355720Y-58451774D01*
X121336801Y-58483339D01*
X121314879Y-58512897D01*
X121290165Y-58540165D01*
X121262897Y-58564879D01*
X121233339Y-58586801D01*
X121201774Y-58605720D01*
X121168506Y-58621455D01*
X121133857Y-58633853D01*
X121098159Y-58642794D01*
X121061756Y-58648194D01*
X121025000Y-58650000D01*
X120275000Y-58650000D01*
X120238244Y-58648194D01*
X120201841Y-58642794D01*
X120166143Y-58633853D01*
X120131494Y-58621455D01*
X120098226Y-58605720D01*
X120066661Y-58586801D01*
X120037103Y-58564879D01*
X120009835Y-58540165D01*
X119985121Y-58512897D01*
X119963199Y-58483339D01*
X119944280Y-58451774D01*
X119928545Y-58418506D01*
X119916147Y-58383857D01*
X119907206Y-58348159D01*
X119901806Y-58311756D01*
X119900000Y-58275000D01*
X119900000Y-56825000D01*
X119901806Y-56788244D01*
X119907206Y-56751841D01*
X119916147Y-56716143D01*
X119928545Y-56681494D01*
X119944280Y-56648226D01*
X119963199Y-56616661D01*
X119985121Y-56587103D01*
X120009835Y-56559835D01*
X120037103Y-56535121D01*
X120066661Y-56513199D01*
X120098226Y-56494280D01*
X120131494Y-56478545D01*
X120166143Y-56466147D01*
X120201841Y-56457206D01*
X120238244Y-56451806D01*
X120275000Y-56450000D01*
X121025000Y-56450000D01*
X121061756Y-56451806D01*
X121061756Y-56451806D01*
G37*
D16*
X120650000Y-57550000D03*
D14*
X118110000Y-57550000D03*
G04 #@! TD*
G04 #@! TO.C,Q3*
X118110000Y-68980000D03*
D15*
G36*
X121061756Y-67881806D02*
X121098159Y-67887206D01*
X121133857Y-67896147D01*
X121168506Y-67908545D01*
X121201774Y-67924280D01*
X121233339Y-67943199D01*
X121262897Y-67965121D01*
X121290165Y-67989835D01*
X121314879Y-68017103D01*
X121336801Y-68046661D01*
X121355720Y-68078226D01*
X121371455Y-68111494D01*
X121383853Y-68146143D01*
X121392794Y-68181841D01*
X121398194Y-68218244D01*
X121400000Y-68255000D01*
X121400000Y-69705000D01*
X121398194Y-69741756D01*
X121392794Y-69778159D01*
X121383853Y-69813857D01*
X121371455Y-69848506D01*
X121355720Y-69881774D01*
X121336801Y-69913339D01*
X121314879Y-69942897D01*
X121290165Y-69970165D01*
X121262897Y-69994879D01*
X121233339Y-70016801D01*
X121201774Y-70035720D01*
X121168506Y-70051455D01*
X121133857Y-70063853D01*
X121098159Y-70072794D01*
X121061756Y-70078194D01*
X121025000Y-70080000D01*
X120275000Y-70080000D01*
X120238244Y-70078194D01*
X120201841Y-70072794D01*
X120166143Y-70063853D01*
X120131494Y-70051455D01*
X120098226Y-70035720D01*
X120066661Y-70016801D01*
X120037103Y-69994879D01*
X120009835Y-69970165D01*
X119985121Y-69942897D01*
X119963199Y-69913339D01*
X119944280Y-69881774D01*
X119928545Y-69848506D01*
X119916147Y-69813857D01*
X119907206Y-69778159D01*
X119901806Y-69741756D01*
X119900000Y-69705000D01*
X119900000Y-68255000D01*
X119901806Y-68218244D01*
X119907206Y-68181841D01*
X119916147Y-68146143D01*
X119928545Y-68111494D01*
X119944280Y-68078226D01*
X119963199Y-68046661D01*
X119985121Y-68017103D01*
X120009835Y-67989835D01*
X120037103Y-67965121D01*
X120066661Y-67943199D01*
X120098226Y-67924280D01*
X120131494Y-67908545D01*
X120166143Y-67896147D01*
X120201841Y-67887206D01*
X120238244Y-67881806D01*
X120275000Y-67880000D01*
X121025000Y-67880000D01*
X121061756Y-67881806D01*
X121061756Y-67881806D01*
G37*
D16*
X120650000Y-68980000D03*
D15*
G36*
X119791756Y-65811806D02*
X119828159Y-65817206D01*
X119863857Y-65826147D01*
X119898506Y-65838545D01*
X119931774Y-65854280D01*
X119963339Y-65873199D01*
X119992897Y-65895121D01*
X120020165Y-65919835D01*
X120044879Y-65947103D01*
X120066801Y-65976661D01*
X120085720Y-66008226D01*
X120101455Y-66041494D01*
X120113853Y-66076143D01*
X120122794Y-66111841D01*
X120128194Y-66148244D01*
X120130000Y-66185000D01*
X120130000Y-67635000D01*
X120128194Y-67671756D01*
X120122794Y-67708159D01*
X120113853Y-67743857D01*
X120101455Y-67778506D01*
X120085720Y-67811774D01*
X120066801Y-67843339D01*
X120044879Y-67872897D01*
X120020165Y-67900165D01*
X119992897Y-67924879D01*
X119963339Y-67946801D01*
X119931774Y-67965720D01*
X119898506Y-67981455D01*
X119863857Y-67993853D01*
X119828159Y-68002794D01*
X119791756Y-68008194D01*
X119755000Y-68010000D01*
X119005000Y-68010000D01*
X118968244Y-68008194D01*
X118931841Y-68002794D01*
X118896143Y-67993853D01*
X118861494Y-67981455D01*
X118828226Y-67965720D01*
X118796661Y-67946801D01*
X118767103Y-67924879D01*
X118739835Y-67900165D01*
X118715121Y-67872897D01*
X118693199Y-67843339D01*
X118674280Y-67811774D01*
X118658545Y-67778506D01*
X118646147Y-67743857D01*
X118637206Y-67708159D01*
X118631806Y-67671756D01*
X118630000Y-67635000D01*
X118630000Y-66185000D01*
X118631806Y-66148244D01*
X118637206Y-66111841D01*
X118646147Y-66076143D01*
X118658545Y-66041494D01*
X118674280Y-66008226D01*
X118693199Y-65976661D01*
X118715121Y-65947103D01*
X118739835Y-65919835D01*
X118767103Y-65895121D01*
X118796661Y-65873199D01*
X118828226Y-65854280D01*
X118861494Y-65838545D01*
X118896143Y-65826147D01*
X118931841Y-65817206D01*
X118968244Y-65811806D01*
X119005000Y-65810000D01*
X119755000Y-65810000D01*
X119791756Y-65811806D01*
X119791756Y-65811806D01*
G37*
D16*
X119380000Y-66910000D03*
G04 #@! TD*
D15*
G04 #@! TO.C,Q4*
G36*
X119791756Y-77241806D02*
X119828159Y-77247206D01*
X119863857Y-77256147D01*
X119898506Y-77268545D01*
X119931774Y-77284280D01*
X119963339Y-77303199D01*
X119992897Y-77325121D01*
X120020165Y-77349835D01*
X120044879Y-77377103D01*
X120066801Y-77406661D01*
X120085720Y-77438226D01*
X120101455Y-77471494D01*
X120113853Y-77506143D01*
X120122794Y-77541841D01*
X120128194Y-77578244D01*
X120130000Y-77615000D01*
X120130000Y-79065000D01*
X120128194Y-79101756D01*
X120122794Y-79138159D01*
X120113853Y-79173857D01*
X120101455Y-79208506D01*
X120085720Y-79241774D01*
X120066801Y-79273339D01*
X120044879Y-79302897D01*
X120020165Y-79330165D01*
X119992897Y-79354879D01*
X119963339Y-79376801D01*
X119931774Y-79395720D01*
X119898506Y-79411455D01*
X119863857Y-79423853D01*
X119828159Y-79432794D01*
X119791756Y-79438194D01*
X119755000Y-79440000D01*
X119005000Y-79440000D01*
X118968244Y-79438194D01*
X118931841Y-79432794D01*
X118896143Y-79423853D01*
X118861494Y-79411455D01*
X118828226Y-79395720D01*
X118796661Y-79376801D01*
X118767103Y-79354879D01*
X118739835Y-79330165D01*
X118715121Y-79302897D01*
X118693199Y-79273339D01*
X118674280Y-79241774D01*
X118658545Y-79208506D01*
X118646147Y-79173857D01*
X118637206Y-79138159D01*
X118631806Y-79101756D01*
X118630000Y-79065000D01*
X118630000Y-77615000D01*
X118631806Y-77578244D01*
X118637206Y-77541841D01*
X118646147Y-77506143D01*
X118658545Y-77471494D01*
X118674280Y-77438226D01*
X118693199Y-77406661D01*
X118715121Y-77377103D01*
X118739835Y-77349835D01*
X118767103Y-77325121D01*
X118796661Y-77303199D01*
X118828226Y-77284280D01*
X118861494Y-77268545D01*
X118896143Y-77256147D01*
X118931841Y-77247206D01*
X118968244Y-77241806D01*
X119005000Y-77240000D01*
X119755000Y-77240000D01*
X119791756Y-77241806D01*
X119791756Y-77241806D01*
G37*
D16*
X119380000Y-78340000D03*
D15*
G36*
X121061756Y-79311806D02*
X121098159Y-79317206D01*
X121133857Y-79326147D01*
X121168506Y-79338545D01*
X121201774Y-79354280D01*
X121233339Y-79373199D01*
X121262897Y-79395121D01*
X121290165Y-79419835D01*
X121314879Y-79447103D01*
X121336801Y-79476661D01*
X121355720Y-79508226D01*
X121371455Y-79541494D01*
X121383853Y-79576143D01*
X121392794Y-79611841D01*
X121398194Y-79648244D01*
X121400000Y-79685000D01*
X121400000Y-81135000D01*
X121398194Y-81171756D01*
X121392794Y-81208159D01*
X121383853Y-81243857D01*
X121371455Y-81278506D01*
X121355720Y-81311774D01*
X121336801Y-81343339D01*
X121314879Y-81372897D01*
X121290165Y-81400165D01*
X121262897Y-81424879D01*
X121233339Y-81446801D01*
X121201774Y-81465720D01*
X121168506Y-81481455D01*
X121133857Y-81493853D01*
X121098159Y-81502794D01*
X121061756Y-81508194D01*
X121025000Y-81510000D01*
X120275000Y-81510000D01*
X120238244Y-81508194D01*
X120201841Y-81502794D01*
X120166143Y-81493853D01*
X120131494Y-81481455D01*
X120098226Y-81465720D01*
X120066661Y-81446801D01*
X120037103Y-81424879D01*
X120009835Y-81400165D01*
X119985121Y-81372897D01*
X119963199Y-81343339D01*
X119944280Y-81311774D01*
X119928545Y-81278506D01*
X119916147Y-81243857D01*
X119907206Y-81208159D01*
X119901806Y-81171756D01*
X119900000Y-81135000D01*
X119900000Y-79685000D01*
X119901806Y-79648244D01*
X119907206Y-79611841D01*
X119916147Y-79576143D01*
X119928545Y-79541494D01*
X119944280Y-79508226D01*
X119963199Y-79476661D01*
X119985121Y-79447103D01*
X120009835Y-79419835D01*
X120037103Y-79395121D01*
X120066661Y-79373199D01*
X120098226Y-79354280D01*
X120131494Y-79338545D01*
X120166143Y-79326147D01*
X120201841Y-79317206D01*
X120238244Y-79311806D01*
X120275000Y-79310000D01*
X121025000Y-79310000D01*
X121061756Y-79311806D01*
X121061756Y-79311806D01*
G37*
D16*
X120650000Y-80410000D03*
D14*
X118110000Y-80410000D03*
G04 #@! TD*
G04 #@! TO.C,Q5*
X118110000Y-93110000D03*
D15*
G36*
X121061756Y-92011806D02*
X121098159Y-92017206D01*
X121133857Y-92026147D01*
X121168506Y-92038545D01*
X121201774Y-92054280D01*
X121233339Y-92073199D01*
X121262897Y-92095121D01*
X121290165Y-92119835D01*
X121314879Y-92147103D01*
X121336801Y-92176661D01*
X121355720Y-92208226D01*
X121371455Y-92241494D01*
X121383853Y-92276143D01*
X121392794Y-92311841D01*
X121398194Y-92348244D01*
X121400000Y-92385000D01*
X121400000Y-93835000D01*
X121398194Y-93871756D01*
X121392794Y-93908159D01*
X121383853Y-93943857D01*
X121371455Y-93978506D01*
X121355720Y-94011774D01*
X121336801Y-94043339D01*
X121314879Y-94072897D01*
X121290165Y-94100165D01*
X121262897Y-94124879D01*
X121233339Y-94146801D01*
X121201774Y-94165720D01*
X121168506Y-94181455D01*
X121133857Y-94193853D01*
X121098159Y-94202794D01*
X121061756Y-94208194D01*
X121025000Y-94210000D01*
X120275000Y-94210000D01*
X120238244Y-94208194D01*
X120201841Y-94202794D01*
X120166143Y-94193853D01*
X120131494Y-94181455D01*
X120098226Y-94165720D01*
X120066661Y-94146801D01*
X120037103Y-94124879D01*
X120009835Y-94100165D01*
X119985121Y-94072897D01*
X119963199Y-94043339D01*
X119944280Y-94011774D01*
X119928545Y-93978506D01*
X119916147Y-93943857D01*
X119907206Y-93908159D01*
X119901806Y-93871756D01*
X119900000Y-93835000D01*
X119900000Y-92385000D01*
X119901806Y-92348244D01*
X119907206Y-92311841D01*
X119916147Y-92276143D01*
X119928545Y-92241494D01*
X119944280Y-92208226D01*
X119963199Y-92176661D01*
X119985121Y-92147103D01*
X120009835Y-92119835D01*
X120037103Y-92095121D01*
X120066661Y-92073199D01*
X120098226Y-92054280D01*
X120131494Y-92038545D01*
X120166143Y-92026147D01*
X120201841Y-92017206D01*
X120238244Y-92011806D01*
X120275000Y-92010000D01*
X121025000Y-92010000D01*
X121061756Y-92011806D01*
X121061756Y-92011806D01*
G37*
D16*
X120650000Y-93110000D03*
D15*
G36*
X119791756Y-89941806D02*
X119828159Y-89947206D01*
X119863857Y-89956147D01*
X119898506Y-89968545D01*
X119931774Y-89984280D01*
X119963339Y-90003199D01*
X119992897Y-90025121D01*
X120020165Y-90049835D01*
X120044879Y-90077103D01*
X120066801Y-90106661D01*
X120085720Y-90138226D01*
X120101455Y-90171494D01*
X120113853Y-90206143D01*
X120122794Y-90241841D01*
X120128194Y-90278244D01*
X120130000Y-90315000D01*
X120130000Y-91765000D01*
X120128194Y-91801756D01*
X120122794Y-91838159D01*
X120113853Y-91873857D01*
X120101455Y-91908506D01*
X120085720Y-91941774D01*
X120066801Y-91973339D01*
X120044879Y-92002897D01*
X120020165Y-92030165D01*
X119992897Y-92054879D01*
X119963339Y-92076801D01*
X119931774Y-92095720D01*
X119898506Y-92111455D01*
X119863857Y-92123853D01*
X119828159Y-92132794D01*
X119791756Y-92138194D01*
X119755000Y-92140000D01*
X119005000Y-92140000D01*
X118968244Y-92138194D01*
X118931841Y-92132794D01*
X118896143Y-92123853D01*
X118861494Y-92111455D01*
X118828226Y-92095720D01*
X118796661Y-92076801D01*
X118767103Y-92054879D01*
X118739835Y-92030165D01*
X118715121Y-92002897D01*
X118693199Y-91973339D01*
X118674280Y-91941774D01*
X118658545Y-91908506D01*
X118646147Y-91873857D01*
X118637206Y-91838159D01*
X118631806Y-91801756D01*
X118630000Y-91765000D01*
X118630000Y-90315000D01*
X118631806Y-90278244D01*
X118637206Y-90241841D01*
X118646147Y-90206143D01*
X118658545Y-90171494D01*
X118674280Y-90138226D01*
X118693199Y-90106661D01*
X118715121Y-90077103D01*
X118739835Y-90049835D01*
X118767103Y-90025121D01*
X118796661Y-90003199D01*
X118828226Y-89984280D01*
X118861494Y-89968545D01*
X118896143Y-89956147D01*
X118931841Y-89947206D01*
X118968244Y-89941806D01*
X119005000Y-89940000D01*
X119755000Y-89940000D01*
X119791756Y-89941806D01*
X119791756Y-89941806D01*
G37*
D16*
X119380000Y-91040000D03*
G04 #@! TD*
D15*
G04 #@! TO.C,Q6*
G36*
X165511756Y-70891806D02*
X165548159Y-70897206D01*
X165583857Y-70906147D01*
X165618506Y-70918545D01*
X165651774Y-70934280D01*
X165683339Y-70953199D01*
X165712897Y-70975121D01*
X165740165Y-70999835D01*
X165764879Y-71027103D01*
X165786801Y-71056661D01*
X165805720Y-71088226D01*
X165821455Y-71121494D01*
X165833853Y-71156143D01*
X165842794Y-71191841D01*
X165848194Y-71228244D01*
X165850000Y-71265000D01*
X165850000Y-72715000D01*
X165848194Y-72751756D01*
X165842794Y-72788159D01*
X165833853Y-72823857D01*
X165821455Y-72858506D01*
X165805720Y-72891774D01*
X165786801Y-72923339D01*
X165764879Y-72952897D01*
X165740165Y-72980165D01*
X165712897Y-73004879D01*
X165683339Y-73026801D01*
X165651774Y-73045720D01*
X165618506Y-73061455D01*
X165583857Y-73073853D01*
X165548159Y-73082794D01*
X165511756Y-73088194D01*
X165475000Y-73090000D01*
X164725000Y-73090000D01*
X164688244Y-73088194D01*
X164651841Y-73082794D01*
X164616143Y-73073853D01*
X164581494Y-73061455D01*
X164548226Y-73045720D01*
X164516661Y-73026801D01*
X164487103Y-73004879D01*
X164459835Y-72980165D01*
X164435121Y-72952897D01*
X164413199Y-72923339D01*
X164394280Y-72891774D01*
X164378545Y-72858506D01*
X164366147Y-72823857D01*
X164357206Y-72788159D01*
X164351806Y-72751756D01*
X164350000Y-72715000D01*
X164350000Y-71265000D01*
X164351806Y-71228244D01*
X164357206Y-71191841D01*
X164366147Y-71156143D01*
X164378545Y-71121494D01*
X164394280Y-71088226D01*
X164413199Y-71056661D01*
X164435121Y-71027103D01*
X164459835Y-70999835D01*
X164487103Y-70975121D01*
X164516661Y-70953199D01*
X164548226Y-70934280D01*
X164581494Y-70918545D01*
X164616143Y-70906147D01*
X164651841Y-70897206D01*
X164688244Y-70891806D01*
X164725000Y-70890000D01*
X165475000Y-70890000D01*
X165511756Y-70891806D01*
X165511756Y-70891806D01*
G37*
D16*
X165100000Y-71990000D03*
D15*
G36*
X166781756Y-72961806D02*
X166818159Y-72967206D01*
X166853857Y-72976147D01*
X166888506Y-72988545D01*
X166921774Y-73004280D01*
X166953339Y-73023199D01*
X166982897Y-73045121D01*
X167010165Y-73069835D01*
X167034879Y-73097103D01*
X167056801Y-73126661D01*
X167075720Y-73158226D01*
X167091455Y-73191494D01*
X167103853Y-73226143D01*
X167112794Y-73261841D01*
X167118194Y-73298244D01*
X167120000Y-73335000D01*
X167120000Y-74785000D01*
X167118194Y-74821756D01*
X167112794Y-74858159D01*
X167103853Y-74893857D01*
X167091455Y-74928506D01*
X167075720Y-74961774D01*
X167056801Y-74993339D01*
X167034879Y-75022897D01*
X167010165Y-75050165D01*
X166982897Y-75074879D01*
X166953339Y-75096801D01*
X166921774Y-75115720D01*
X166888506Y-75131455D01*
X166853857Y-75143853D01*
X166818159Y-75152794D01*
X166781756Y-75158194D01*
X166745000Y-75160000D01*
X165995000Y-75160000D01*
X165958244Y-75158194D01*
X165921841Y-75152794D01*
X165886143Y-75143853D01*
X165851494Y-75131455D01*
X165818226Y-75115720D01*
X165786661Y-75096801D01*
X165757103Y-75074879D01*
X165729835Y-75050165D01*
X165705121Y-75022897D01*
X165683199Y-74993339D01*
X165664280Y-74961774D01*
X165648545Y-74928506D01*
X165636147Y-74893857D01*
X165627206Y-74858159D01*
X165621806Y-74821756D01*
X165620000Y-74785000D01*
X165620000Y-73335000D01*
X165621806Y-73298244D01*
X165627206Y-73261841D01*
X165636147Y-73226143D01*
X165648545Y-73191494D01*
X165664280Y-73158226D01*
X165683199Y-73126661D01*
X165705121Y-73097103D01*
X165729835Y-73069835D01*
X165757103Y-73045121D01*
X165786661Y-73023199D01*
X165818226Y-73004280D01*
X165851494Y-72988545D01*
X165886143Y-72976147D01*
X165921841Y-72967206D01*
X165958244Y-72961806D01*
X165995000Y-72960000D01*
X166745000Y-72960000D01*
X166781756Y-72961806D01*
X166781756Y-72961806D01*
G37*
D16*
X166370000Y-74060000D03*
D14*
X163830000Y-74060000D03*
G04 #@! TD*
D15*
G04 #@! TO.C,Q7*
G36*
X165511756Y-87401806D02*
X165548159Y-87407206D01*
X165583857Y-87416147D01*
X165618506Y-87428545D01*
X165651774Y-87444280D01*
X165683339Y-87463199D01*
X165712897Y-87485121D01*
X165740165Y-87509835D01*
X165764879Y-87537103D01*
X165786801Y-87566661D01*
X165805720Y-87598226D01*
X165821455Y-87631494D01*
X165833853Y-87666143D01*
X165842794Y-87701841D01*
X165848194Y-87738244D01*
X165850000Y-87775000D01*
X165850000Y-89225000D01*
X165848194Y-89261756D01*
X165842794Y-89298159D01*
X165833853Y-89333857D01*
X165821455Y-89368506D01*
X165805720Y-89401774D01*
X165786801Y-89433339D01*
X165764879Y-89462897D01*
X165740165Y-89490165D01*
X165712897Y-89514879D01*
X165683339Y-89536801D01*
X165651774Y-89555720D01*
X165618506Y-89571455D01*
X165583857Y-89583853D01*
X165548159Y-89592794D01*
X165511756Y-89598194D01*
X165475000Y-89600000D01*
X164725000Y-89600000D01*
X164688244Y-89598194D01*
X164651841Y-89592794D01*
X164616143Y-89583853D01*
X164581494Y-89571455D01*
X164548226Y-89555720D01*
X164516661Y-89536801D01*
X164487103Y-89514879D01*
X164459835Y-89490165D01*
X164435121Y-89462897D01*
X164413199Y-89433339D01*
X164394280Y-89401774D01*
X164378545Y-89368506D01*
X164366147Y-89333857D01*
X164357206Y-89298159D01*
X164351806Y-89261756D01*
X164350000Y-89225000D01*
X164350000Y-87775000D01*
X164351806Y-87738244D01*
X164357206Y-87701841D01*
X164366147Y-87666143D01*
X164378545Y-87631494D01*
X164394280Y-87598226D01*
X164413199Y-87566661D01*
X164435121Y-87537103D01*
X164459835Y-87509835D01*
X164487103Y-87485121D01*
X164516661Y-87463199D01*
X164548226Y-87444280D01*
X164581494Y-87428545D01*
X164616143Y-87416147D01*
X164651841Y-87407206D01*
X164688244Y-87401806D01*
X164725000Y-87400000D01*
X165475000Y-87400000D01*
X165511756Y-87401806D01*
X165511756Y-87401806D01*
G37*
D16*
X165100000Y-88500000D03*
D15*
G36*
X166781756Y-89471806D02*
X166818159Y-89477206D01*
X166853857Y-89486147D01*
X166888506Y-89498545D01*
X166921774Y-89514280D01*
X166953339Y-89533199D01*
X166982897Y-89555121D01*
X167010165Y-89579835D01*
X167034879Y-89607103D01*
X167056801Y-89636661D01*
X167075720Y-89668226D01*
X167091455Y-89701494D01*
X167103853Y-89736143D01*
X167112794Y-89771841D01*
X167118194Y-89808244D01*
X167120000Y-89845000D01*
X167120000Y-91295000D01*
X167118194Y-91331756D01*
X167112794Y-91368159D01*
X167103853Y-91403857D01*
X167091455Y-91438506D01*
X167075720Y-91471774D01*
X167056801Y-91503339D01*
X167034879Y-91532897D01*
X167010165Y-91560165D01*
X166982897Y-91584879D01*
X166953339Y-91606801D01*
X166921774Y-91625720D01*
X166888506Y-91641455D01*
X166853857Y-91653853D01*
X166818159Y-91662794D01*
X166781756Y-91668194D01*
X166745000Y-91670000D01*
X165995000Y-91670000D01*
X165958244Y-91668194D01*
X165921841Y-91662794D01*
X165886143Y-91653853D01*
X165851494Y-91641455D01*
X165818226Y-91625720D01*
X165786661Y-91606801D01*
X165757103Y-91584879D01*
X165729835Y-91560165D01*
X165705121Y-91532897D01*
X165683199Y-91503339D01*
X165664280Y-91471774D01*
X165648545Y-91438506D01*
X165636147Y-91403857D01*
X165627206Y-91368159D01*
X165621806Y-91331756D01*
X165620000Y-91295000D01*
X165620000Y-89845000D01*
X165621806Y-89808244D01*
X165627206Y-89771841D01*
X165636147Y-89736143D01*
X165648545Y-89701494D01*
X165664280Y-89668226D01*
X165683199Y-89636661D01*
X165705121Y-89607103D01*
X165729835Y-89579835D01*
X165757103Y-89555121D01*
X165786661Y-89533199D01*
X165818226Y-89514280D01*
X165851494Y-89498545D01*
X165886143Y-89486147D01*
X165921841Y-89477206D01*
X165958244Y-89471806D01*
X165995000Y-89470000D01*
X166745000Y-89470000D01*
X166781756Y-89471806D01*
X166781756Y-89471806D01*
G37*
D16*
X166370000Y-90570000D03*
D14*
X163830000Y-90570000D03*
G04 #@! TD*
D17*
G04 #@! TO.C,R1*
X161290000Y-55880000D03*
D18*
X153670000Y-55880000D03*
G04 #@! TD*
G04 #@! TO.C,R2*
X153670000Y-50800000D03*
D17*
X161290000Y-50800000D03*
G04 #@! TD*
D18*
G04 #@! TO.C,R3*
X153670000Y-45720000D03*
D17*
X161290000Y-45720000D03*
G04 #@! TD*
G04 #@! TO.C,R4*
X161290000Y-40640000D03*
D18*
X153670000Y-40640000D03*
G04 #@! TD*
G04 #@! TO.C,R5*
X191770000Y-39370000D03*
D17*
X184150000Y-39370000D03*
G04 #@! TD*
G04 #@! TO.C,R6*
X184150000Y-44450000D03*
D18*
X191770000Y-44450000D03*
G04 #@! TD*
G04 #@! TO.C,R7*
X191770000Y-49530000D03*
D17*
X184150000Y-49530000D03*
G04 #@! TD*
G04 #@! TO.C,R8*
X184150000Y-55880000D03*
D18*
X191770000Y-55880000D03*
G04 #@! TD*
D17*
G04 #@! TO.C,R9*
X113030000Y-40640000D03*
D18*
X113030000Y-48260000D03*
G04 #@! TD*
G04 #@! TO.C,R10*
X125730000Y-48260000D03*
D17*
X125730000Y-40640000D03*
G04 #@! TD*
G04 #@! TO.C,R11*
X113030000Y-52070000D03*
D18*
X113030000Y-59690000D03*
G04 #@! TD*
G04 #@! TO.C,R12*
X113030000Y-71120000D03*
D17*
X113030000Y-63500000D03*
G04 #@! TD*
D18*
G04 #@! TO.C,R13*
X113030000Y-83820000D03*
D17*
X113030000Y-76200000D03*
G04 #@! TD*
G04 #@! TO.C,R14*
X113030000Y-88900000D03*
D18*
X113030000Y-96520000D03*
G04 #@! TD*
G04 #@! TO.C,R15*
X158750000Y-77470000D03*
D17*
X158750000Y-69850000D03*
G04 #@! TD*
G04 #@! TO.C,R16*
X158750000Y-86360000D03*
D18*
X158750000Y-93980000D03*
G04 #@! TD*
G04 #@! TO.C,R17*
X125730000Y-59690000D03*
D17*
X125730000Y-52070000D03*
G04 #@! TD*
G04 #@! TO.C,R18*
X125730000Y-63500000D03*
D18*
X125730000Y-71120000D03*
G04 #@! TD*
D17*
G04 #@! TO.C,R19*
X125730000Y-76200000D03*
D18*
X125730000Y-83820000D03*
G04 #@! TD*
G04 #@! TO.C,R20*
X125730000Y-96520000D03*
D17*
X125730000Y-88900000D03*
G04 #@! TD*
G04 #@! TO.C,R21*
X171450000Y-69850000D03*
D18*
X171450000Y-77470000D03*
G04 #@! TD*
G04 #@! TO.C,R22*
X171450000Y-93980000D03*
D17*
X171450000Y-86360000D03*
G04 #@! TD*
M02*
